<?xml version="1.0" encoding="UTF-8" standalone="no"?>
<!-- Created with Inkscape (http://www.inkscape.org/) -->

<svg
   width="168.82686mm"
   height="112.99527mm"
   viewBox="0 0 168.82686 112.99527"
   version="1.1"
   id="svg5"
   xml:space="preserve"
   inkscape:version="1.2.2 (732a01da63, 2022-12-09)"
   sodipodi:docname="IconsTest.svg"
   inkscape:export-filename="manhattan-acrylic continuous.svg"
   inkscape:export-xdpi="96"
   inkscape:export-ydpi="96"
   xmlns:inkscape="http://www.inkscape.org/namespaces/inkscape"
   xmlns:sodipodi="http://sodipodi.sourceforge.net/DTD/sodipodi-0.dtd"
   xmlns="http://www.w3.org/2000/svg"
   xmlns:svg="http://www.w3.org/2000/svg"><sodipodi:namedview
     id="namedview7"
     pagecolor="#ffffff"
     bordercolor="#000000"
     borderopacity="0.25"
     inkscape:showpageshadow="2"
     inkscape:pageopacity="0.0"
     inkscape:pagecheckerboard="0"
     inkscape:deskcolor="#d1d1d1"
     inkscape:document-units="mm"
     showgrid="true"
     inkscape:zoom="1.5433538"
     inkscape:cx="325.58964"
     inkscape:cy="234.8781"
     inkscape:window-width="2560"
     inkscape:window-height="1361"
     inkscape:window-x="-9"
     inkscape:window-y="-9"
     inkscape:window-maximized="1"
     inkscape:current-layer="g22291"
     inkscape:rotation="-90" /><defs
     id="defs2" /><g
     inkscape:groupmode="layer"
     id="g22405"
     inkscape:label="Icons Test Cut"
     style="display:inline"
     transform="translate(-289.29823,-103.8129)"><g
       inkscape:groupmode="layer"
       id="g22277"
       inkscape:label="One World Trade Raster"
       style="display:inline"
       transform="matrix(2.7260058,0,0,2.7260058,-106.22363,-75.439716)"><path
         style="opacity:1;vector-effect:non-scaling-stroke;fill:#000000;fill-opacity:1;stroke:#000000;stroke-width:0.264583;stroke-linecap:round;stroke-linejoin:round;stroke-dasharray:none;stroke-dashoffset:0;stroke-opacity:1;-inkscape-stroke:hairline"
         d="M 170.92239,80.712282 146.4815,79.620876 v 0.363802 l 25.10234,2.348177 z"
         id="path22265"
         inkscape:export-filename="..\..\..\..\One World Trade test cut.svg"
         inkscape:export-xdpi="96"
         inkscape:export-ydpi="96" /><path
         style="opacity:1;vector-effect:non-scaling-stroke;fill:#000000;fill-opacity:1;stroke:#000000;stroke-width:0.264583;stroke-linecap:round;stroke-linejoin:round;stroke-dasharray:none;stroke-dashoffset:0;stroke-opacity:1;-inkscape-stroke:hairline"
         d="m 146.48534,84.54874 -0.004,-4.134114 24.40781,2.083593 z"
         id="path22267"
         sodipodi:nodetypes="cccc" /><path
         style="opacity:1;vector-effect:non-scaling-stroke;fill:#000000;fill-opacity:1;stroke:#000000;stroke-width:0.264583;stroke-linecap:round;stroke-linejoin:round;stroke-dasharray:none;stroke-dashoffset:0;stroke-opacity:1;-inkscape-stroke:hairline"
         d="m 146.48292,84.933922 0.003,1.378372 24.76727,0.121602 0.40514,-3.646289 z"
         id="path22269"
         sodipodi:nodetypes="ccccc" /><path
         style="opacity:1;vector-effect:non-scaling-stroke;fill:#000000;fill-opacity:1;stroke:#000000;stroke-width:0.264583;stroke-linecap:round;stroke-linejoin:round;stroke-dasharray:none;stroke-dashoffset:0;stroke-opacity:1;-inkscape-stroke:hairline"
         d="m 146.48292,86.563265 20.99988,0.168288 -20.99729,0.694531 z"
         id="path22271"
         sodipodi:nodetypes="cccc" /><path
         style="opacity:1;vector-effect:non-scaling-stroke;fill:#000000;fill-opacity:1;stroke:#000000;stroke-width:0.264583;stroke-linecap:round;stroke-linejoin:round;stroke-dasharray:none;stroke-dashoffset:0;stroke-opacity:1;-inkscape-stroke:hairline"
         d="m 171.66896,85.27781 0.60939,-0.0015 c 0.46854,-0.92053 0.5975,-2.144561 -0.0171,-3.610794 l -0.69705,0.0048 0.41645,0.960281 z"
         id="path22273"
         sodipodi:nodetypes="cccccc" /><path
         style="opacity:1;vector-effect:non-scaling-stroke;fill:#000000;fill-opacity:1;stroke:#000000;stroke-width:0.264583;stroke-linecap:round;stroke-linejoin:round;stroke-dasharray:none;stroke-dashoffset:0;stroke-opacity:1;-inkscape-stroke:hairline"
         d="m 172.88196,83.15141 1.00045,0.239778 9.23594,0.06615 -9.22767,0.165364 -1.00872,0.256316 c 0.0175,-0.242536 0.0322,-0.485072 0,-0.727608 z"
         id="path22275"
         sodipodi:nodetypes="cccccc" /></g><g
       inkscape:groupmode="layer"
       id="g22291"
       inkscape:label="Chrysler Raster"
       style="display:inline"
       transform="matrix(2.2744446,0,0,2.2744446,-4.1086628,1.9654185)"><path
         id="path22279"
         style="display:inline;opacity:1;vector-effect:non-scaling-stroke;fill:#000000;fill-opacity:1;stroke:#000000;stroke-width:0.264583;stroke-linecap:round;stroke-linejoin:round;stroke-dasharray:none;stroke-dashoffset:0;stroke-opacity:1;-inkscape-stroke:hairline"
         d="m 176.48834,83.083883 -0.007,2.40614 7.07761,0.0125 -0.0931,-0.46641 1.7252,0.002 -0.0827,-0.23978 5.18417,0.11576 c 0.28153,-0.119 0.33989,-0.27595 0.25476,-0.42582 l 0.45321,0.0289 -0.18603,0.16123 0.69968,0.0801 -0.55913,0.19431 0.86197,0.18086 -0.87954,0.0997 0.66353,0.20206 -0.8108,-0.006 0.42478,0.21032 -0.73744,-0.0594 c -0.12797,0.0377 -0.28137,0.0588 -0.46042,0.0584 l -4.46889,-0.0363 0.0585,0.58446 4.55247,0.0818 c 0.0102,0.003 0.0185,0.006 0.0279,0.009 l 0.36121,-0.2868 -0.076,0.3948 0.76017,-0.15761 -0.3452,0.4501 0.84491,-0.006 -0.59015,0.43822 0.90021,0.13436 -0.86248,0.53227 0.72192,0.41496 -0.97927,0.23358 0.50538,0.47129 -0.87333,-0.0677 0.27441,0.44441 -0.78031,-0.23099 0.0263,0.42116 -0.46372,-0.24024 -4.47981,-0.03 0.012,-0.27497 4.52065,0.0305 c 1.21364,-0.0591 1.34083,-1.87068 0.1819,-1.94304 l -4.57646,-0.0827 0.0528,-0.40623 -1.78594,-0.004 0.0404,-0.61856 -7.10667,-0.005 0.001,4.66944 6.71859,0.0108 0.0827,-0.83095 1.82314,-0.015 0.006,-0.0977 4.57852,0.01 c 2.92064,0.021 3.71665,-3.09986 1.73838,-3.6866 1.4881,-0.17328 0.66041,-1.57559 -1.10741,-1.68103 -0.1831,-0.11166 -0.44249,-0.20092 -0.72968,-0.23875 l -4.72528,-0.0496 -0.0951,-0.23151 -1.71462,-0.002 -0.1912,-0.6475 z"
         sodipodi:nodetypes="cccccccccccccccccccccccccccccccccccccccccccccccccccccccccccccc" /><path
         id="path22281"
         style="display:inline;opacity:1;vector-effect:non-scaling-stroke;fill:#000000;fill-opacity:1;stroke:#000000;stroke-width:0.264583;stroke-linecap:round;stroke-linejoin:round;stroke-dasharray:none;stroke-dashoffset:0;stroke-opacity:1;-inkscape-stroke:hairline"
         d="m 195.35918,86.218173 c 0.0101,0.0326 0.01,0.0621 0.009,0.0999 l 0.0689,0.0523 -0.0743,0.0146 c -0.006,0.0228 -0.009,0.0547 -0.0182,0.0755 l 0.13972,0.11105 -0.16559,0.0134 c -0.007,0.0195 -0.0208,0.0397 -0.0291,0.0583 0.009,0.0139 0.0218,0.0432 0.0292,0.0655 l 0.25388,0.0426 -0.20404,0.15988 c 0.0163,0.064 0.0234,0.13813 0.0219,0.21445 l 0.26519,0.0536 -0.27054,0.161 c -0.006,0.0764 -0.004,0.099 -0.0155,0.16019 l 0.1791,0.0254 -0.19413,0.0945 c -0.0104,0.0273 -0.016,0.0517 -0.0288,0.0644 l 1.90548,-0.4973 4.4483,-0.0579 v -0.11577 l -4.45399,-0.1819 z"
         sodipodi:nodetypes="ccccccccccccccccccccccc" /><path
         id="path22283"
         style="display:inline;opacity:1;vector-effect:non-scaling-stroke;fill:#000000;fill-opacity:1;stroke:#000000;stroke-width:0.264583;stroke-linecap:round;stroke-linejoin:round;stroke-dasharray:none;stroke-dashoffset:0;stroke-opacity:1;-inkscape-stroke:hairline"
         d="m 193.79233,85.407683 -0.2937,0.10252 0.60995,0.15173 -0.59117,0.0974 0.69039,0.17549 -0.75896,0.0598 0.46545,0.13657 -0.57477,0.003 c -0.0299,0.0204 -0.0407,0.0312 -0.0721,0.0463 0.0808,0.0792 0.15903,0.14209 0.19227,0.21451 l 0.5848,0.0566 -0.35988,0.25424 0.65753,0.21498 -0.54077,0.32952 0.58625,0.303 -0.63627,0.27114 0.35101,0.32004 -0.58017,0.21512 0.11302,0.22102 -0.32886,0.0823 c -0.0584,0.0598 -0.12731,0.1265 -0.17327,0.15689 1.20887,-0.0242 1.84725,-1.52467 1.26997,-2.39409 0.0543,-0.11824 0.40252,-0.92999 -1.1092,-1.3254 0.0548,0.0613 0.10899,0.14765 0.12991,0.21116 z"
         sodipodi:nodetypes="ccccccccccccccccccccccccc" /><path
         id="path22285"
         style="display:inline;opacity:1;vector-effect:non-scaling-stroke;fill:#000000;fill-opacity:1;stroke:#000000;stroke-width:0.264583;stroke-linecap:round;stroke-linejoin:round;stroke-dasharray:none;stroke-dashoffset:0;stroke-opacity:1;-inkscape-stroke:hairline"
         d="m 191.83811,84.619163 c 0.042,0.0284 0.076,0.0565 0.11353,0.0842 l 0.10027,-0.009 -0.0578,0.0453 c 0.0309,0.024 0.063,0.0537 0.0908,0.0772 l 0.36597,0.0757 -0.15339,0.1914 0.79005,0.19307 -0.67546,0.17157 0.59278,0.23358 -0.68685,0.0372 0.41329,0.16225 -0.55724,-0.009 c -0.0834,0.0443 -0.18075,0.0823 -0.28887,0.11265 0.12921,0.0735 0.24232,0.1561 0.34055,0.24546 l 0.57655,0.0592 -0.29002,0.33144 0.61662,0.14399 -0.4256,0.47613 0.52894,0.45818 -0.67427,0.43065 0.27534,0.46645 -0.64384,0.10729 0.19114,0.32679 -0.5178,0.0498 c -0.15406,0.12212 -0.26726,0.17856 -0.45416,0.26295 2.158,-0.11439 2.88605,-2.29845 1.49287,-3.20657 0.72803,0.011 0.53255,-1.67016 -1.06342,-1.51821 z"
         sodipodi:nodetypes="ccccccccccccccccccccccccccccc" /><path
         id="path22287"
         style="display:inline;opacity:1;vector-effect:non-scaling-stroke;fill:#000000;fill-opacity:1;stroke:#000000;stroke-width:0.264583;stroke-linecap:round;stroke-linejoin:round;stroke-dasharray:none;stroke-dashoffset:0;stroke-opacity:1;-inkscape-stroke:hairline"
         d="m 194.47653,85.699133 c 0.0214,0.0371 0.0478,0.0791 0.0641,0.1192 l 0.15754,0.0565 -0.0806,0.0724 0.38138,0.12247 -0.35295,0.0346 0.36121,0.12558 -0.38085,0.0258 0.20981,0.10283 -0.25566,0.0102 c -0.009,0.0157 -0.0167,0.0314 -0.0274,0.047 0.0368,0.0575 0.0649,0.11727 0.093,0.17519 l 0.23962,0.0445 -0.14414,0.20378 0.29297,0.13521 -0.24208,0.22097 0.29377,0.19658 -0.3524,0.22734 0.20253,0.1902 -0.31212,0.13333 0.0372,0.11782 -0.11988,0.0664 c -0.0276,0.0412 -0.0449,0.0646 -0.0816,0.10145 0.89261,-0.1733 0.81162,-1.22654 0.61386,-1.58896 0.25568,-0.65388 -0.15231,-0.85921 -0.59737,-0.94051 z"
         sodipodi:nodetypes="cccccccccccccccccccccccccc" /><path
         id="path22289"
         style="display:inline;opacity:1;vector-effect:non-scaling-stroke;fill:#000000;fill-opacity:1;stroke:#000000;stroke-width:0.264583;stroke-linecap:round;stroke-linejoin:round;stroke-dasharray:none;stroke-dashoffset:0;stroke-opacity:1;-inkscape-stroke:hairline"
         d="m 190.20444,85.133283 -4.77077,-0.0889 0.0773,0.28656 4.58053,0.038 c 0.44771,-0.021 0.6073,-0.29819 0.58088,-0.55649 -0.003,0.12184 -0.20826,0.3128 -0.46791,0.32078 z m -6.33093,0.20062 0.0507,0.33268 -0.0135,0.51414 1.45263,0.008 -0.10433,-0.84843 z m 1.71783,1.16042 -0.023,0.22214 4.36924,0.031 c 0.57491,-0.0175 1.09441,0.59625 0.94728,1.22183 0.30273,-0.59467 -0.20695,-1.36717 -0.78645,-1.42361 z"
         sodipodi:nodetypes="cccccccccccccccccc" /></g><g
       inkscape:groupmode="layer"
       id="g22309"
       inkscape:label="Empire State Raster"
       transform="matrix(2.1263786,0,0,2.1263786,10.348101,-115.58635)"
       style="display:inline"><path
         id="path22293"
         style="opacity:1;vector-effect:non-scaling-stroke;fill:#000000;fill-opacity:1;stroke:#000000;stroke-width:0.264583;stroke-linecap:round;stroke-linejoin:round;stroke-dasharray:none;stroke-dashoffset:0;stroke-opacity:1;-inkscape-stroke:hairline"
         d="m 153.37904,134.66494 0.67616,1.54108 -0.14873,1.80354 -3.50254,-0.002 -0.0331,0.26044 -17.58754,0.0207 -0.007,1.17409 21.04217,-0.15293 -0.0977,1.35274 0.90816,-0.009 0.34827,-4.43344 -0.66246,-1.55276 z"
         sodipodi:nodetypes="ccccccccccccc" /><path
         style="opacity:1;vector-effect:non-scaling-stroke;fill:#000000;fill-opacity:1;stroke:#000000;stroke-width:0.264583;stroke-linecap:round;stroke-linejoin:round;stroke-dasharray:none;stroke-dashoffset:0;stroke-opacity:1;-inkscape-stroke:hairline"
         d="m 149.78378,139.79308 -17.0005,0.0828 0.004,1.96784 16.84724,-0.0247 z"
         id="path22295"
         sodipodi:nodetypes="ccccc" /><path
         style="opacity:1;vector-effect:non-scaling-stroke;fill:#000000;fill-opacity:1;stroke:#000000;stroke-width:0.264583;stroke-linecap:round;stroke-linejoin:round;stroke-dasharray:none;stroke-dashoffset:0;stroke-opacity:1;-inkscape-stroke:hairline"
         d="m 150.25507,139.70213 -0.1212,1.54616 3.12256,0.008 0.11576,-1.56269 z"
         id="path22297"
         sodipodi:nodetypes="ccccc" /><path
         style="opacity:1;vector-effect:non-scaling-stroke;fill:#000000;fill-opacity:1;stroke:#000000;stroke-width:0.264583;stroke-linecap:round;stroke-linejoin:round;stroke-dasharray:none;stroke-dashoffset:0;stroke-opacity:1;-inkscape-stroke:hairline"
         d="m 155.81958,139.84269 0.33073,-3.47266 -0.46302,-1.02526 0.21084,0.004 0.11162,0.22738 h 0.24805 l 0.11989,0.25631 0.2067,-0.004 0.1695,0.38447 0.21498,-0.004 0.2067,0.51677 -0.18603,2.37711 -0.26459,0.004 -0.0289,0.28525 -0.32246,0.008 -0.0207,0.28112 -0.34727,0.008 -0.0124,0.14056 z"
         id="path22299"
         sodipodi:nodetypes="ccccccccccccccccccc" /><path
         id="path22301"
         style="display:inline;opacity:1;vector-effect:non-scaling-stroke;fill:#000000;fill-opacity:1;stroke:#000000;stroke-width:0.264583;stroke-linecap:round;stroke-linejoin:round;stroke-dasharray:none;stroke-dashoffset:0;stroke-opacity:1;-inkscape-stroke:hairline"
         d="m 155.32934,135.04169 -0.53,-0.008 0.58662,1.25494 -0.30148,3.92599 0.45316,-0.002 0.36379,-3.94052 z"
         sodipodi:nodetypes="ccccccc" /><path
         id="path22303"
         style="display:inline;opacity:1;vector-effect:non-scaling-stroke;fill:#000000;fill-opacity:1;stroke:#000000;stroke-width:0.264583;stroke-linecap:round;stroke-linejoin:round;stroke-dasharray:none;stroke-dashoffset:0;stroke-opacity:1;-inkscape-stroke:hairline"
         d="m 152.78515,134.01411 -2.91042,-0.009 0.75241,1.90997 -0.16537,1.65364 3.03444,-2.7e-4 0.11574,-1.6371 z"
         sodipodi:nodetypes="ccccccc" /><path
         id="path22305"
         style="display:inline;opacity:1;vector-effect:non-scaling-stroke;fill:#000000;fill-opacity:1;stroke:#000000;stroke-width:0.264583;stroke-linecap:round;stroke-linejoin:round;stroke-dasharray:none;stroke-dashoffset:0;stroke-opacity:1;-inkscape-stroke:hairline"
         d="m 132.78228,133.38775 0.001,4.4707 17.16586,-0.0498 0.19844,-2.0836 -0.92604,-2.34817 z"
         sodipodi:nodetypes="cccccc" /><path
         style="opacity:1;vector-effect:non-scaling-stroke;fill:#000000;fill-opacity:1;stroke:#000000;stroke-width:0.264583;stroke-linecap:round;stroke-linejoin:round;stroke-dasharray:none;stroke-dashoffset:0;stroke-opacity:1;-inkscape-stroke:hairline"
         d="m 157.41122,136.83305 0.19016,0.51677 -0.10748,1.0542 0.95911,-0.0331 0.66969,-0.1695 1.79834,-0.0165 0.14469,-0.11989 0.40928,0.008 0.339,-0.22738 1.07754,0.007 0.28063,-0.0702 4.11595,-0.0702 v -0.15201 l -4.12764,0.0117 -0.26894,-0.0819 -1.06407,0.0117 -0.36248,-0.25725 -0.38587,0.0117 -0.14032,-0.10524 -1.80073,0.0117 -0.76004,-0.31571 z"
         id="path22307"
         sodipodi:nodetypes="cccccccccccccccccccccc" /></g><g
       inkscape:groupmode="layer"
       id="g22313"
       inkscape:label="Central Park"><path
         id="path22311"
         style="opacity:1;vector-effect:non-scaling-stroke;fill:#000000;fill-opacity:1;stroke:#000000;stroke-width:0.264583;stroke-linecap:round;stroke-linejoin:round;stroke-dasharray:none;stroke-dashoffset:0;stroke-opacity:1;-inkscape-stroke:hairline"
         d="m 290.60498,105.46963 a 2.2254524,2.2254524 0 0 0 -0.85029,3.02985 2.2254524,2.2254524 0 0 0 2.01386,1.13293 l 0.20009,30.74295 164.76358,-0.92766 -0.23713,-34.25294 -162.70843,1.45772 a 2.2254524,2.2254524 0 0 0 -0.15139,-0.33281 2.2254524,2.2254524 0 0 0 -3.03029,-0.85004 z m 45.99602,7.45976 c 3.64178,-1.94542 10.10819,-2.98916 9.89673,-0.62845 -0.2819,3.1476 -1.12601,4.02795 -2.3232,4.64315 -1.19719,0.61514 -3.2643,-0.17983 -4.25976,1.33065 -0.99545,1.5105 1.20568,3.01819 0.73973,4.28825 -0.46595,1.27005 -1.86792,0.62368 -1.98287,1.87248 -0.11493,1.24882 4.02823,3.12402 2.902,3.68058 -1.12622,0.55657 -2.38576,0.86818 -3.72577,0.1203 -1.34001,-0.74787 -2.78095,-1.04717 -3.19427,-2.98533 -0.41331,-1.93814 2.60484,-2.74593 2.47093,-4.65026 -0.13386,-1.90432 -3.80904,-2.49353 -2.87208,-5.51819 0.23425,-0.75615 1.13461,-1.50471 2.34856,-2.15318 z m 49.62757,-1.03538 c 3.10005,-1.74022 7.32714,-2.44486 9.84746,-1.31974 3.84048,1.71449 4.54643,8.49968 7.59956,9.23134 3.05313,0.73169 2.76955,5.89655 6.12445,7.99495 3.3549,2.0984 1.10457,5.1391 -0.44977,6.16553 -1.55432,1.02643 -5.98866,4.1315 -10.36802,3.2504 -4.37938,-0.8811 -8.36918,-1.50023 -14.34854,-0.33587 -5.97935,1.16436 -7.73424,-4.63532 -5.53244,-7.49709 2.20179,-2.86179 1.84958,-10.04478 3.59035,-14.0174 0.59838,-1.36559 1.91304,-2.56069 3.53695,-3.47212 z m 63.97689,12.11268 c 1.22848,-0.66024 2.83119,-0.5096 3.52299,1.04447 1.58128,3.55217 -0.59092,6.74817 1.34524,10.09335 1.93617,3.34516 -3.30306,1.80929 -5.40214,1.59301 -2.09908,-0.21629 -8.58659,2.33297 -4.98276,-0.76681 3.60384,-3.09979 9.61292,-2.61943 5.36549,-6.65554 -2.38917,-2.2703 -1.4283,-4.4596 0.15118,-5.30848 z" /></g><g
       inkscape:groupmode="layer"
       id="g22329"
       inkscape:label="Guggenheim"
       style="display:inline"
       transform="matrix(0.86147143,0,0,0.86147143,54.846193,26.852968)"><path
         style="display:inline;vector-effect:non-scaling-stroke;fill:#000000;fill-opacity:1;stroke:#000000;stroke-width:0.264583;stroke-linecap:round;stroke-linejoin:round;stroke-dasharray:none;stroke-opacity:1;-inkscape-stroke:hairline"
         d="m 371.136,187.60984 -5.07669,0.19844 -0.44648,-5.37435 4.34908,-0.0661 z"
         id="path22315" /><path
         style="display:inline;vector-effect:non-scaling-stroke;fill:#000000;fill-opacity:1;stroke:#000000;stroke-width:0.264583;stroke-linecap:round;stroke-linejoin:round;stroke-dasharray:none;stroke-opacity:1;-inkscape-stroke:hairline"
         d="m 372.09512,184.4183 c 3.16398,-0.98116 6.49331,16.93884 3.48919,28.85612 l -2.868,-0.54329 c 4.02105,-12.44936 1.95849,-25.3583 -0.1251,-25.10475 l -0.49609,-0.008 -0.7028,-2.94762 z"
         id="path22317"
         sodipodi:nodetypes="ccccccc" /><path
         style="display:inline;vector-effect:non-scaling-stroke;fill:#000000;fill-opacity:1;stroke:#000000;stroke-width:0.264583;stroke-linecap:round;stroke-linejoin:round;stroke-dasharray:none;stroke-opacity:1;-inkscape-stroke:hairline"
         d="m 373.23613,184.2364 c 4.47036,0.68351 5.98069,25.57639 2.69545,30.67513 l 0.14882,0.95912 1.27331,0.29765 c 6.33898,-0.97565 4.16168,-33.99896 -2.21588,-32.44453 z"
         id="path22319"
         sodipodi:nodetypes="cccccc" /><path
         style="display:inline;vector-effect:non-scaling-stroke;fill:#000000;fill-opacity:1;stroke:#000000;stroke-width:0.264583;stroke-linecap:round;stroke-linejoin:round;stroke-dasharray:none;stroke-opacity:1;-inkscape-stroke:hairline"
         d="m 376.14655,183.5088 c 7.19887,-0.51263 8.60998,33.50286 1.75286,32.74218 l 2.67891,0.678 c 7.99262,0.84336 6.27834,-35.42109 -2.34817,-33.99896 z"
         id="path22321"
         sodipodi:nodetypes="ccccc" /><path
         style="display:inline;vector-effect:non-scaling-stroke;fill:#000000;fill-opacity:1;stroke:#000000;stroke-width:0.264583;stroke-linecap:round;stroke-linejoin:round;stroke-dasharray:none;stroke-opacity:1;-inkscape-stroke:hairline"
         d="m 379.80111,182.43393 4.59713,-0.19844 c 9.81163,0.83785 12.64488,31.07752 3.34037,35.15651 l -5.6224,0.0992 c 7.09965,-0.50711 6.59254,-33.85563 -2.3151,-35.05727 z"
         id="path22323"
         sodipodi:nodetypes="ccccc" /><path
         style="display:inline;vector-effect:non-scaling-stroke;fill:#000000;fill-opacity:1;stroke:#000000;stroke-width:0.264583;stroke-linecap:round;stroke-linejoin:round;stroke-dasharray:none;stroke-opacity:1;-inkscape-stroke:hairline"
         d="m 364.9679,185.60893 0.5788,6.13503 c -0.42067,5.89697 -0.18248,9.74481 0.31419,15.32929 l -0.71106,7.27604 7.4414,0.13229 0.0992,-0.76067 2.28203,0.42994 c 0.7717,3.21909 -0.30868,3.82543 -1.45521,5.78776 l -10.68255,0.56224 v -34.89192 z"
         id="path22325"
         sodipodi:nodetypes="ccccccccccc" /><path
         style="vector-effect:non-scaling-stroke;fill:#000000;fill-opacity:1;stroke:#000000;stroke-width:0.264583;stroke-linecap:round;stroke-linejoin:round;stroke-dasharray:none;stroke-opacity:1;-inkscape-stroke:hairline"
         d="m 366.42282,188.76915 5.49574,-0.28064 c 2.00341,0 2.70855,10.80878 1.37978,17.60972 l -1.84751,7.43678 -5.28526,-0.11693 0.74834,-7.24969 c 0.46773,-6.36101 0.16371,-17.56294 -0.49109,-17.39924 z"
         id="path22327"
         sodipodi:nodetypes="ccccccc" /></g><g
       inkscape:groupmode="layer"
       id="g22335"
       inkscape:label="Rockefeller Tree"
       style="display:inline"><path
         id="path22331"
         style="display:inline;vector-effect:non-scaling-stroke;fill:#000000;fill-opacity:1;stroke:#000000;stroke-width:0.18273;stroke-linecap:round;stroke-linejoin:round;-inkscape-stroke:hairline"
         inkscape:transform-center-x="3.8786552e-06"
         inkscape:transform-center-y="-2.5188175e-06"
         d="m 357.00144,193.60112 -0.83148,3.70055 -2.51354,-2.83962 1.12965,3.62045 -1.82676,-0.61081 -0.10956,0.62631 1.7353,0.31781 0.78186,0.69144 0.63097,0.40049 0.23358,0.0847 -0.58601,-1.47381 1.02112,1.21336 0.22945,-1.56942 0.2775,1.56167 0.9834,-1.24437 -0.54053,1.49138 1.47381,-0.58601 -1.21336,1.02113 1.56941,0.22892 -1.56166,0.27802 1.24437,0.9834 -1.49139,-0.54053 0.58602,1.47381 -1.02113,-1.21336 -0.22944,1.56889 -0.27751,-1.56114 -0.9834,1.24437 0.54054,-1.49138 -0.36381,0.14469 -0.032,0.10542 -0.82682,1.90841 -0.53227,0.0527 -0.95756,2.83187 2.57039,-2.78846 0.75706,3.71605 0.83199,-3.70003 2.51405,2.83962 -1.13016,-3.62045 3.5972,1.20251 -2.78846,-2.57039 3.71605,-0.75706 -3.70003,-0.83199 2.83962,-2.51406 -3.62045,1.12965 1.20251,-3.59668 -2.57091,2.78846 z" /><path
         id="path22333"
         style="vector-effect:non-scaling-stroke;fill:#000000;stroke:#000000;stroke-width:0.264583;stroke-linecap:round;stroke-linejoin:round;stroke-dasharray:none;stroke-opacity:1;-inkscape-stroke:hairline"
         d="m 327.54067,189.04009 -1.87069,0.23409 -2.19832,0.93535 -1.12241,-0.2341 -0.88883,1.40353 v 1.68362 l -0.23358,1.26297 0.79478,0.46768 -0.84181,1.87068 v 0.88884 l 0.65475,0.18707 v 1.6371 l -2.01125,-0.51469 0.047,2.47892 1.16892,-0.0465 1.21647,0.60771 -0.65474,1.49707 0.2806,1.26297 -1.21646,1.54306 0.7953,0.37414 0.60823,2.01124 -0.42116,0.70177 0.7953,0.98237 -0.14056,0.70125 1.0759,0.46767 0.65474,1.12293 0.2806,-0.74879 2.33888,0.23409 0.42065,-1.54358 3.55482,0.88884 0.18707,-0.88884 3.32072,0.42117 1.30948,-0.70177 2.76004,0.88884 0.93535,-1.63711 1.02887,-0.18707 0.93535,-1.91771 3.41426,0.70176 -0.70125,-1.12293 1.49655,0.047 0.047,-0.60823 2.61897,0.047 0.18706,-0.88883 2.57246,0.23409 -0.32711,-0.70176 3.2737,-1.26298 -0.32711,-0.88831 1.40301,-0.14056 0.84181,-1.91772 0.23409,-0.88831 -1.54357,-1.26298 -1.77715,-0.32762 0.23357,-1.21595 -1.26297,0.42116 0.14056,-0.7953 -0.65474,-0.46767 -1.40353,0.23358 -1.02888,-0.93535 0.2341,-0.7953 -1.91772,-0.5612 -2.05827,-0.37414 0.70177,-0.98185 -0.98237,-0.0941 -1.9172,0.65525 0.60772,-1.30999 -2.38539,0.14056 -1.63711,0.0935 -0.60771,-1.02888 -1.02939,1.07539 -2.33836,-0.18707 v -0.84181 l -1.12242,0.14056 v -0.5612 l -0.74827,-0.047 -1.12293,0.2806 -0.88832,-1.54357 -0.70176,0.14056 -1.35651,0.74827 -0.84181,-0.88883 -1.16944,0.93534 z m 2.79001,2.5864 -0.0207,0.66611 0.48369,0.45837 -0.66611,-0.0207 -0.45837,0.48369 0.0207,-0.66611 -0.48369,-0.45837 0.66611,0.0207 z m -5.76968,2.7218 0.55398,0.69298 0.59376,-0.65887 -0.19637,0.86506 0.88521,0.0532 -0.79891,0.38602 0.51004,0.72502 -0.79943,-0.38344 -0.24908,0.8506 -0.19844,-0.86403 -0.82062,0.33589 0.5519,-0.69401 -0.77411,-0.43253 0.88677,-10e-4 z m 21.57853,0.18862 -0.12351,0.54054 0.32195,0.45165 -0.54054,-0.12351 -0.45165,0.32194 0.12351,-0.54053 -0.32195,-0.45165 0.54054,0.12299 z m -9.86348,0.46302 0.36174,1.1374 1.1932,0.0289 -0.96996,0.69556 0.34106,1.1436 -0.96118,-0.70745 -0.98237,0.67851 0.37569,-1.13274 -0.94826,-0.72502 1.19372,0.007 z m 15.06058,4.56871 0.26923,0.4408 0.45372,-0.24701 -0.24701,0.45372 0.4408,0.26923 -0.51676,0.0124 -0.0124,0.51676 -0.26923,-0.4408 -0.45372,0.24701 0.24701,-0.45371 -0.4408,-0.26924 0.51677,-0.0124 z m -8.5416,1.16014 0.1819,0.60771 0.61599,-0.15192 -0.43564,0.46147 0.43977,0.45733 -0.61753,-0.14624 -0.17622,0.60926 -0.1819,-0.60771 -0.61598,0.15193 0.43511,-0.46147 -0.43925,-0.45734 0.61754,0.14625 z m 6.12263,0.62115 -0.27596,1.14722 0.67283,0.96945 -1.14722,-0.27595 -0.96945,0.67282 0.27596,-1.14721 -0.67283,-0.96945 1.14722,0.27595 z m -20.92276,0.81804 -0.14417,0.63304 0.55087,0.34313 -0.64648,0.0584 -0.15606,0.63045 -0.25528,-0.59738 -0.64802,0.046 0.48937,-0.42685 -0.24443,-0.60203 0.55759,0.33331 z m 5.05706,1.20406 0.12661,1.50843 1.46761,-0.36948 -1.10019,1.03921 1.20406,0.91726 -1.49862,-0.21188 0.0336,1.51309 -0.76843,-1.30431 -1.1622,0.96996 0.54053,-1.41386 -1.48311,-0.30386 1.44229,-0.4594 -0.68678,-1.34876 1.25832,0.84129 z m 7.16752,1.8805 -0.13488,0.65475 0.39946,0.53588 -0.65474,-0.13488 -0.53588,0.39946 0.13487,-0.65474 -0.39946,-0.53588 0.65474,0.13487 z m -15.44557,4.50877 0.0388,0.5333 0.42426,0.3266 -0.53382,0.0382 -0.32607,0.42478 -0.0388,-0.53382 -0.42427,-0.32608 0.53382,-0.0387 z" /></g><g
       inkscape:groupmode="layer"
       id="g22347"
       inkscape:label="Rockefeller Atlas"
       style="display:inline"
       transform="matrix(0.94997273,0,0,0.94997273,32.62473,-104.26526)"><path
         style="display:inline;vector-effect:non-scaling-stroke;fill:#000000;fill-opacity:1;stroke:#000000;stroke-width:0.19003;stroke-linecap:round;stroke-linejoin:round;stroke-dasharray:none;stroke-opacity:1;-inkscape-stroke:hairline"
         d="m 341.39552,291.00213 c -0.0457,0.41161 0.23279,1.04581 0.53018,0.9484 0.40884,-0.21716 0.76785,-0.65898 1.49747,-0.88811 0.56137,0.22615 2.12983,0.76256 2.75021,0.75755 0.62036,-0.005 0.63362,-0.14919 0.83302,-0.30964 0.239,0.087 0.25768,-0.0478 0.61276,-0.0133 0.48375,0.28198 1.17877,0.26198 1.51902,0.20504 0.16706,0.007 0.12651,0.0516 0.12867,0.0791 0.23472,0.0771 0.99642,0.0912 1.31635,0.099 0.30014,-0.22222 0.3773,-0.61438 0.3563,-0.85017 0.13998,-0.1938 0.20413,-0.20074 0.43549,-0.31771 0.28035,-0.15898 0.66605,-0.16558 1.36824,-0.24555 0.75118,0.0463 2.20647,0.18266 2.87264,0.73823 0.30925,0.80051 0.59187,1.49562 0.92096,1.96766 0.0631,0.51403 -0.0253,0.38678 0.28172,0.96414 0.22303,0.8503 1.23089,1.77949 1.78153,2.31599 0.58562,0.5715 0.7691,0.77485 1.00953,0.96995 0.26143,0.15311 0.28199,0.23767 0.7744,0.0874 0.49381,0.32371 1.21922,1.32179 2.63496,1.9225 l 0.9798,-1.31573 c -3.69961,-1.69938 -5.38313,-6.14908 -5.51483,-8.17424 1.87689,0.11638 1.58537,-1.55704 1.15455,-1.8934 -0.43082,-0.33637 -0.72126,-0.23999 -1.23852,-0.31813 0.5815,-6.54474 4.50372,-9.44864 5.82274,-10.58174 l -0.8958,-1.09177 c -0.76524,0.47746 -2.33711,2.0637 -2.79941,2.65944 -0.367,-0.10906 -0.1919,-0.25941 -0.95179,-0.056 -0.30108,0.30409 -0.5251,0.59865 -1.00778,1.28773 -0.98746,0.84249 -1.59475,2.15086 -1.9036,2.7714 -0.15542,0.24445 -0.24591,0.63098 -0.24844,0.79434 -0.18478,0.56286 -0.75671,1.78566 -0.78733,2.20103 -0.9437,0.52474 -1.87492,0.84192 -2.93938,1.03578 -0.99547,-0.0716 -1.57572,-0.29525 -1.88958,-0.41992 -1.36542,-0.87816 -4.71946,-0.31712 -4.87096,-0.22395 -0.18667,-0.0242 -0.29124,-0.0242 -0.5179,0 -0.28615,-0.0947 -0.44241,-0.59231 -1.03577,-0.76984 -0.67734,0.0114 -1.65306,0.0768 -2.42149,0.13997 -0.48149,0.33262 -0.2801,0.94761 -0.22479,1.25323 0.35274,0.12366 0.41321,-0.27927 0.82102,-0.16893 0.65977,0.30549 1.25056,0.65385 1.86724,0.80533 0.3027,0.0277 0.68845,0.26334 1.11977,0.39191 0.43132,0.12857 1.08747,0.0553 1.46968,0.36393 0.17926,0.39263 0.49891,0.94424 0.62987,1.28772 -0.16997,0.32247 -0.40334,0.47145 -0.67187,0.4759 -1.79233,-0.40306 -1.85823,-0.11497 -3.59723,0.20995 -0.58964,0.11322 -0.89322,0.0898 -1.24572,0.26595 -0.39452,0.25195 -0.58191,0.31221 -0.72593,0.63952 z"
         id="path22337"
         sodipodi:nodetypes="ccccccccccccccccccccczccccccccccccccccccccccccc" /><path
         id="path22339"
         style="display:inline;fill:none;stroke:#000000;stroke-width:0.856129;stroke-linecap:round;stroke-linejoin:round;stroke-opacity:1"
         d="m 385.96833,283.29024 a 10.843551,14.687746 73.123757 0 1 -10.90737,14.64045 10.843551,14.687746 73.123757 0 1 -17.20307,-6.11273 10.843551,14.687746 73.123757 0 1 10.90738,-14.64046 10.843551,14.687746 73.123757 0 1 17.20306,6.11274 z" /><path
         id="path22341"
         style="display:inline;fill:none;stroke:#000000;stroke-width:0.856106;stroke-linecap:round;stroke-linejoin:round;stroke-opacity:1"
         d="m 377.99978,274.1871 a 5.9804406,14.687553 24.482135 0 1 -0.64394,15.84537 5.9804406,14.687553 24.482135 0 1 -11.5294,10.88862 5.9804406,14.687553 24.482135 0 1 0.64394,-15.84538 5.9804406,14.687553 24.482135 0 1 11.5294,-10.88861 z" /><path
         id="path22343"
         style="display:inline;fill:none;stroke:#000000;stroke-width:0.382;stroke-linecap:round;stroke-linejoin:round;stroke-dasharray:none;stroke-opacity:1"
         d="m 378.17527,300.84009 a 14.687829,4.7349098 64.763786 0 1 -10.54518,-11.26731 14.687829,4.7349098 64.763786 0 1 -1.97914,-15.30468 14.687829,4.7349098 64.763786 0 1 10.54519,11.26731 14.687829,4.7349098 64.763786 0 1 1.97913,15.30468 z" /><path
         id="path22345"
         style="display:inline;fill:none;stroke:#000000;stroke-width:0.382;stroke-linecap:round;stroke-linejoin:round;stroke-dasharray:none;stroke-opacity:1"
         d="m 360.37682,296.64506 a 8.0113463,14.687807 51.760702 0 1 6.57775,-15.38336 8.0113463,14.687807 51.760702 0 1 16.49486,-2.79854 8.0113463,14.687807 51.760702 0 1 -6.57776,15.38337 8.0113463,14.687807 51.760702 0 1 -16.49485,2.79853 z" /></g><g
       inkscape:groupmode="layer"
       id="g22373"
       inkscape:label="AMNH"
       transform="matrix(1.2371761,0,0,1.2371761,-92.428127,-44.704643)"><path
         id="path22349"
         style="display:inline;vector-effect:non-scaling-stroke;fill:#000000;fill-opacity:1;stroke:#000000;stroke-width:0.264583;stroke-linecap:round;stroke-linejoin:round;stroke-dasharray:none;stroke-opacity:1;-inkscape-stroke:hairline"
         d="m 410.47238,149.47015 c -0.31305,0.007 -0.49165,0.18249 -0.401,0.63975 -0.53894,0.2269 -0.0376,1.2899 0.28318,1.65365 -0.0218,1.24867 -0.028,1.94292 -0.047,3.30729 0.42463,0.51892 1.53525,0.59758 0.33073,2.69286 0.15611,0.72561 1.0878,-0.12716 0.66145,2.12596 -0.73918,0.61575 -1.36145,0.53884 -1.37045,3.3073 0.1731,0.96239 2.03792,4.63173 0.663,8.47648 0.0442,0.26024 0.006,0.8195 -0.42684,0.8785 0.5314,0.41861 1.39998,-0.0845 1.98437,-0.4253 1.66761,0.23403 4.90047,-1.34992 4.86637,-5.48028 0.23358,-0.35245 0.308,-0.38044 0.2837,-1.27589 0.0416,-0.23466 0.54398,-0.99258 0.57878,-1.22835 0.0863,-0.58399 -0.35373,-0.65811 -0.20102,-1.22835 0.12636,-0.47184 0.20897,-0.90926 0.51986,-1.37046 0.35326,-0.3723 0.89025,-0.79676 0.26562,-1.22835 0.21507,-0.60577 0.39716,-0.18199 0.91571,-1.74821 0.59461,-0.60958 0.49146,-0.59926 0.61391,-1.89549 0.17134,-0.24933 0.52815,0.0284 0.7028,-0.60824 0.12818,-0.43393 -0.04,-0.6736 -0.13539,-1.00407 -0.1092,-0.37828 0.56855,-1.07045 -0.44235,-1.39733 -0.92242,-1.14487 -2.0301,-2.60194 -4.84932,-2.70164 -0.33181,-0.0568 -0.65733,0.22383 -0.99218,0.18913 -0.21839,-0.13849 -0.95785,-0.51572 -1.6428,-0.77566 -0.63861,-0.40306 -1.57723,-0.89678 -2.13062,-0.9033 -0.0104,-1.3e-4 -0.0204,-2.3e-4 -0.0305,0 z m 1.64487,1.37717 c 0.53131,0.10198 1.35014,0.93277 2.27634,1.28209 0.48759,0.18531 0.50603,0.69287 0.93121,0.34262 0.0452,-0.10386 0.0569,-0.41232 -0.0419,-0.55139 0.15189,-0.01 0.28156,-0.018 0.46768,-0.0124 0.0942,0.1977 0.0852,0.40452 -0.0253,0.61805 0.006,0.21353 -0.0348,0.44615 0.0672,0.65939 -0.38658,0.10466 -0.71058,0.0415 -1.13584,0.0295 -0.45449,-0.25004 -0.7642,-0.18409 -1.39527,-0.15452 -1.04451,-0.43398 -1.16418,-1.54453 -1.61179,-1.97093 0.14539,-0.10903 0.21959,-0.13321 0.46768,-0.24237 z m 5.36298,1.34049 c 0.71144,-0.002 1.01104,0.44262 1.1436,0.88108 0.0432,0.12067 0.0739,0.141 0.18396,0.24236 -0.18449,0.0462 -0.31725,0.0392 -0.47645,0.0501 -0.66304,-0.41092 -1.23977,0.0534 -1.5782,0.0501 0.1949,-0.42237 0.41145,-0.98396 0.35036,-1.18598 0.12343,-0.0227 0.23747,-0.0349 0.34262,-0.0372 0.0115,-2.5e-4 0.0228,-5e-4 0.0341,-5.2e-4 z m -3.41685,3.3786 c 0.22493,0.90232 1.37287,1.5935 2.17196,1.32757 1.11848,-0.42881 1.19117,-0.54684 2.07119,-1.16892 0.10031,0.004 0.21606,0.0727 0.25063,0.16692 0.002,0.85185 -0.12876,1.17095 -0.46767,1.62884 -0.73536,0.20593 -1.69434,0.33216 -2.58124,0.35915 -1.08723,0.0523 -0.819,-0.24797 -1.54512,-0.96893 -0.22013,-0.1029 -0.59571,-0.21649 -0.69298,-0.22583 0.1068,-0.37566 0.34528,-1.02677 0.79323,-1.1188 z m 0.39532,3.514 c 0.49001,-0.006 0.9215,0.55113 2.62,0.40308 -0.16687,1.11912 -0.95504,1.87234 -1.31982,3.06493 -0.54853,0.633 -1.08144,0.80281 -1.9792,0.48472 -0.89777,-0.31809 -0.39962,-0.62887 -1.09451,-0.83509 -0.11023,-0.63218 0.30502,-1.03718 0.68523,-1.8712 0.25493,-0.51664 0.14113,-0.87233 0.8015,-1.17771 0.10318,-0.0477 0.19606,-0.0677 0.2868,-0.0687 z m 1.5596,8.31009 c -0.6026,2.55184 -1.00767,3.6002 -2.74609,3.55534 0.19871,-1.35006 0.54868,-1.81637 1.05679,-2.3921 0.50811,-0.57579 1.02804,-1.03382 1.6893,-1.16324 z"
         sodipodi:nodetypes="sccccccccccccscccccsccccsssscccccccccssscccccssscccccccccsccsccsssccsc" /><path
         style="vector-effect:non-scaling-stroke;fill:#000000;fill-opacity:1;stroke:#000000;stroke-width:0.264583;stroke-linecap:round;stroke-linejoin:round;stroke-dasharray:none;stroke-opacity:1;-inkscape-stroke:hairline"
         d="m 407.9748,150.10393 c 0.51562,-0.0462 1.23221,0.2205 1.35305,0.74332 0.12083,0.52283 -0.0592,0.19691 -0.0334,1.17766 0.22625,1.03086 0.9379,2.41335 0.25057,4.76076 -0.67898,0.98601 -1.00396,1.07604 -2.00452,3.40767 -0.13193,-0.0237 -0.31447,0.008 -0.46773,0.0167 -2.60045,1.05245 -2.41298,4.56089 -2.514,6.71515 -0.10102,2.15427 -0.57458,2.65386 -0.7851,3.1989 -0.21052,0.54504 0.19217,0.57367 -0.44267,0.81015 -0.34251,-0.0976 -1.72602,-0.53476 -2.35532,-0.8185 -0.52907,-1.06884 -0.80146,-0.92816 -0.56794,-1.95442 -0.86895,-1.86983 0.0222,-3.49666 0.63477,-5.49572 0.61258,-1.99907 0.9868,-3.91819 1.01897,-6.50635 0.0322,-2.58816 2.60766,-4.40592 4.74402,-5.01966 -0.55304,-0.42164 0.74556,-1.8664 1.16931,-1.03566 z"
         id="path22351"
         sodipodi:nodetypes="czcccczcccczzcc" /><path
         style="display:inline;vector-effect:non-scaling-stroke;fill:#000000;fill-opacity:1;stroke:#000000;stroke-width:0.264583;stroke-linecap:round;stroke-linejoin:round;stroke-dasharray:none;stroke-opacity:1;-inkscape-stroke:hairline"
         d="m 410.20054,161.27097 c -0.3612,0.0305 -0.435,0.0401 -0.83229,0.0392 0.19714,0.24858 0.43165,0.33983 0.72086,0.41759 0.0324,-0.17394 0.0784,-0.333 0.11143,-0.45684 z"
         id="path22353"
         sodipodi:nodetypes="ccccc" /><path
         style="display:inline;vector-effect:non-scaling-stroke;fill:#000000;fill-opacity:1;stroke:#000000;stroke-width:0.411923;stroke-linecap:round;stroke-linejoin:round;stroke-dasharray:none;stroke-opacity:1;-inkscape-stroke:hairline"
         d="m 410.0675,161.82084 c -0.62354,0.0428 -1.02159,0.0693 -1.7163,0.25117 0.70423,0.4627 1.00812,0.43178 1.66084,0.46665 0.005,-0.26716 0.0318,-0.51406 0.0555,-0.71782 z"
         id="path22355"
         sodipodi:nodetypes="ccccc" /><path
         id="path22357"
         style="display:inline;vector-effect:non-scaling-stroke;fill:#000000;fill-opacity:1;stroke:#000000;stroke-width:0.411923;stroke-linecap:round;stroke-linejoin:round;stroke-dasharray:none;stroke-opacity:1;-inkscape-stroke:hairline"
         d="m 408.42028,163.69621 c 0.35651,0.21242 0.73998,0.31286 1.1436,0.35244 -0.34723,0.0486 -0.69457,0.12445 -0.99787,0.25373 0.51238,0.30529 1.0777,0.46165 1.67948,0.50178 -0.52684,0.0917 -1.11945,0.24803 -1.59112,0.44906 0.53818,0.32067 1.1689,0.3964 1.82108,0.38809 -0.68284,0.13696 -1.52216,0.39552 -2.09393,0.63924 0.43169,0.25721 0.98149,0.36146 1.54978,0.39274 -0.41613,0.0897 -0.82275,0.21575 -1.11931,0.39739 0.33606,0.25609 0.73164,0.38027 1.14256,0.43202 -0.42536,0.0555 -0.82022,0.17456 -1.0573,0.43356 0.16141,0.0463 0.67889,0.11239 0.86453,0.15695 -0.54969,0.15725 -0.63775,0.38685 -1.12553,0.68561 0.2506,0.0495 0.67504,0.0441 1.14463,0.0775 -0.52096,0.15633 -1.03579,0.24231 -1.53375,0.33331 0.43176,0.35513 0.71883,0.39582 1.37977,0.38359 -0.5222,0.0862 -0.9752,0.15016 -1.40715,0.15916 0.2924,0.27258 0.67688,0.41387 1.09606,0.447 -0.54178,0.20388 -0.66057,0.22289 -1.19192,0.34713 0.53374,0.33719 0.73393,0.44958 1.21311,0.41148 -0.15162,0.0589 -0.60257,0.20326 -0.80164,0.22767 0.29723,0.15296 0.71162,0.16256 1.04238,0.19608 -0.55842,0.0294 -0.69088,0.0597 -1.33631,0.0806 0.43368,0.4135 0.87111,0.48138 1.60665,0.4563 -0.29548,0.0313 -1.04101,0.0703 -1.29463,0.11937 0.62145,0.47866 0.84803,0.54186 1.77216,0.48923 0.35293,-0.14495 0.3151,-0.44966 0.27492,-0.70642 0.82318,-1.87744 0.86247,-4.34205 -0.64314,-8.48994 -0.84038,-0.0335 -0.96633,0.15302 -1.53711,0.38533 z"
         sodipodi:nodetypes="ccccccccccccccccccccccccccccc" /><path
         style="display:inline;vector-effect:non-scaling-stroke;fill:#000000;fill-opacity:1;stroke:#000000;stroke-width:0.218744;stroke-linecap:round;stroke-linejoin:round;stroke-dasharray:none;stroke-opacity:1;-inkscape-stroke:hairline"
         d="m 409.32973,162.90483 c 0.26295,0.16274 0.41139,0.17296 0.66056,0.18173 0.007,-0.14493 1.6e-4,-0.2346 0.006,-0.36587 -0.30254,0.0919 -0.42237,0.13152 -0.66656,0.18414 z"
         id="path22359"
         sodipodi:nodetypes="cccc" /><path
         id="path22361"
         style="vector-effect:non-scaling-stroke;fill:#000000;fill-opacity:1;stroke:#000000;stroke-width:0.264583;stroke-linecap:round;stroke-linejoin:round;stroke-dasharray:none;stroke-opacity:1;-inkscape-stroke:hairline"
         d="m 404.35442,168.01062 c -0.32447,1.82561 -0.89521,2.22245 -0.71003,2.65616 0.39105,-0.005 0.71142,-0.0252 1.26979,-0.31035 -0.21375,-0.0529 -0.48386,-0.093 -0.75035,-0.12402 0.1568,-0.0396 0.3106,-0.0933 0.45269,-0.16588 -0.11517,-0.0285 -0.24693,-0.0533 -0.38551,-0.0749 0.27291,-0.0206 0.56127,-0.0852 0.82734,-0.23823 -0.17999,-0.0976 -0.40751,-0.18592 -0.6382,-0.26303 0.35823,-0.034 0.75389,-0.11137 1.08934,-0.29301 -0.29068,-0.0762 -0.67763,-0.12899 -1.03198,-0.16743 0.30723,-0.0438 0.64233,-0.16169 0.95033,-0.44338 -0.42481,-0.29552 -0.69834,-0.46062 -1.07342,-0.5759 z"
         sodipodi:nodetypes="ccccccccccccc" /><path
         style="display:inline;vector-effect:non-scaling-stroke;fill:#000000;fill-opacity:1;stroke:#000000;stroke-width:0.383431;stroke-linecap:round;stroke-linejoin:round;stroke-dasharray:none;stroke-opacity:1;-inkscape-stroke:hairline"
         d="m 404.42268,167.6537 c 0.54215,0.13007 0.75697,0.25995 1.7292,-0.10113 -0.73211,-0.24343 -1.16937,-0.61596 -1.65243,-0.73103 -0.0379,0.36517 -0.0508,0.60296 -0.0768,0.83214 z"
         id="path22363"
         sodipodi:nodetypes="ccccc" /><path
         style="display:inline;vector-effect:non-scaling-stroke;fill:#000000;fill-opacity:1;stroke:#000000;stroke-width:0.408508;stroke-linecap:round;stroke-linejoin:round;stroke-dasharray:none;stroke-opacity:1;-inkscape-stroke:hairline"
         d="m 404.56156,165.47822 c 0.56623,0.0976 1.56725,0.30112 2.4435,-0.006 -0.62827,-0.30297 -1.85064,-0.64629 -2.40977,-0.75053 -0.0299,0.45339 -0.0258,0.54482 -0.0337,0.75635 z"
         id="path22365"
         sodipodi:nodetypes="cccc" /><path
         id="path22367"
         style="display:inline;vector-effect:non-scaling-stroke;fill:#000000;fill-opacity:1;stroke:#000000;stroke-width:0.383503;stroke-linecap:round;stroke-linejoin:round;stroke-dasharray:none;stroke-opacity:1;-inkscape-stroke:hairline"
         d="m 405.67818,161.236 c -0.63441,0.74679 -0.8973,1.72927 -0.97663,2.44171 0.49903,0.0976 1.2815,0.27422 2.05376,-0.0327 -0.38869,-0.21268 -0.94369,-0.41301 -1.40715,-0.56844 0.22928,0.007 0.48076,-0.0231 0.7183,-0.14211 -0.27195,-0.18107 -0.47516,-0.30811 -0.7628,-0.41298 0.33989,0.0673 0.63571,0.11625 1.108,-0.12445 -0.231,-0.15644 -0.56568,-0.2985 -0.85318,-0.4098 0.24064,0.0256 0.52586,0.0169 0.79117,-0.11834 -0.1708,-0.11567 -0.41213,-0.2217 -0.62942,-0.30747 0.19616,0.0138 0.41992,-0.002 0.62942,-0.10336 -0.23849,-0.15357 -0.45685,-0.14581 -0.67147,-0.22204 z"
         sodipodi:nodetypes="cccccccccccc" /><path
         style="display:inline;vector-effect:non-scaling-stroke;fill:#000000;fill-opacity:1;stroke:#000000;stroke-width:0.291882;stroke-linecap:round;stroke-linejoin:round;stroke-dasharray:none;stroke-opacity:1;-inkscape-stroke:hairline"
         d="m 404.50981,166.55843 c 0.2652,-0.009 0.57171,0.0611 0.97746,-0.34807 -0.29151,-0.30453 -0.66409,-0.46109 -0.92532,-0.52176 -0.0315,0.46099 -0.0112,0.60211 -0.0521,0.86983 z"
         id="path22369"
         sodipodi:nodetypes="cccc" /><path
         style="display:inline;vector-effect:non-scaling-stroke;fill:#000000;fill-opacity:1;stroke:#000000;stroke-width:0.259099;stroke-linecap:round;stroke-linejoin:round;stroke-dasharray:none;stroke-opacity:1;-inkscape-stroke:hairline"
         d="m 405.53236,164.17994 c -0.27138,-0.18023 -0.6088,-0.2994 -0.83917,-0.35361 -0.0264,0.3257 -0.0419,0.44467 -0.0949,0.78865 0.26838,-0.0198 0.7338,-0.26942 0.9341,-0.43504 z"
         id="path22371"
         sodipodi:nodetypes="cccc" /></g><g
       inkscape:groupmode="layer"
       id="g22403"
       inkscape:label="Columbia"
       transform="matrix(0.36296166,0,0,0.36296166,281.22152,171.28252)"><path
         style="vector-effect:non-scaling-stroke;fill:#000000;fill-opacity:1;stroke:#000000;stroke-width:0.264583;stroke-linecap:round;stroke-linejoin:round;stroke-dasharray:none;stroke-opacity:1;-inkscape-stroke:hairline"
         d="m 438.95988,-37.177033 -24.14323,-0.454754 v 2.645833 l 22.37933,0.33073 c 0,0 -0.38478,0.665308 0.0138,1.129991 0.39856,0.464683 1.26781,0.220487 1.26781,0.220487 l 0.67523,-1.460721 z"
         id="path22375"
         sodipodi:nodetypes="cccczccc" /><path
         style="display:inline;vector-effect:non-scaling-stroke;fill:#000000;fill-opacity:1;stroke:#000000;stroke-width:0.264583;stroke-linecap:round;stroke-linejoin:round;stroke-dasharray:none;stroke-opacity:1;-inkscape-stroke:hairline"
         d="m 439.41463,-31.049265 c 0,0 0.23389,-1.249883 -0.82705,-1.265038 -1.06094,-0.01516 -0.71413,1.237844 -0.71413,1.237844 l -21.95893,-0.466537 c 0,0 -0.33255,-0.457531 -0.99391,-0.58414 0.0207,1.705301 -0.0211,2.628888 -8.9e-4,3.938726 0.66329,-0.01538 0.99475,-0.825683 0.99475,-0.825683 l 21.73621,0.486637 c 0,0 -0.38478,0.665308 0.0138,1.129992 0.39856,0.464683 1.26781,0.220488 1.26781,0.220488 l 0.67523,-1.460722 z"
         id="path22377"
         sodipodi:nodetypes="czcccccczccc" /><path
         style="display:inline;vector-effect:non-scaling-stroke;fill:#000000;fill-opacity:1;stroke:#000000;stroke-width:0.264583;stroke-linecap:round;stroke-linejoin:round;stroke-dasharray:none;stroke-opacity:1;-inkscape-stroke:hairline"
         d="m 439.98325,-25.121722 c 0,0 0.23389,-1.249879 -0.82705,-1.265034 -1.06094,-0.01516 -0.71413,1.237844 -0.71413,1.237844 l -22.50461,-0.154723 c 0,0 -0.33255,-0.457531 -0.99391,-0.58414 0.0207,1.705293 -0.0211,2.628883 -8.9e-4,3.938723 0.66329,-0.0154 0.99475,-0.82568 0.99475,-0.82568 l 22.28189,0.17482 c 0,0 -0.38478,0.66531 0.0138,1.12999 0.39856,0.46469 1.26781,0.22049 1.26781,0.22049 l 0.67523,-1.46072 z"
         id="path22379"
         sodipodi:nodetypes="czcccccczccc" /><path
         style="display:inline;vector-effect:non-scaling-stroke;fill:#000000;fill-opacity:1;stroke:#000000;stroke-width:0.264583;stroke-linecap:round;stroke-linejoin:round;stroke-dasharray:none;stroke-opacity:1;-inkscape-stroke:hairline"
         d="m 440.5679,-18.417712 c 0,0 0.23389,-1.24988 -0.82705,-1.26503 -1.06094,-0.0152 -0.71413,1.23784 -0.71413,1.23784 l -23.0113,-0.15473 c 0,0 -0.33255,-0.45753 -0.99391,-0.58414 0.0207,1.7053 -0.0211,2.62889 -8.9e-4,3.93873 0.66329,-0.0154 0.99475,-0.82569 0.99475,-0.82569 l 22.78858,0.17483 c 0,0 -0.38478,0.66531 0.0138,1.12999 0.39856,0.46469 1.26781,0.22049 1.26781,0.22049 l 0.67523,-1.46072 z"
         id="path22381"
         sodipodi:nodetypes="czcccccczccc" /><path
         style="display:inline;vector-effect:non-scaling-stroke;fill:#000000;fill-opacity:1;stroke:#000000;stroke-width:0.264583;stroke-linecap:round;stroke-linejoin:round;stroke-dasharray:none;stroke-opacity:1;-inkscape-stroke:hairline"
         d="m 441.07459,-11.869602 c 0,0 0.23389,-1.24988 -0.82705,-1.26504 -1.06094,-0.0152 -0.71413,1.23785 -0.71413,1.23785 l -23.32312,0.42993 c 0,0 -0.33255,-0.45753 -0.99391,-0.58414 0.0207,1.7053 -0.0211,2.6288897 -8.9e-4,3.9387197 0.66329,-0.0154 0.99475,-0.82568 0.99475,-0.82568 l 23.1004,-0.40983 c 0,0 -0.38478,0.66531 0.0138,1.12999 0.39856,0.46468 1.26781,0.22049 1.26781,0.22049 l 0.67523,-1.46072 z"
         id="path22383"
         sodipodi:nodetypes="czcccccczccc" /><path
         style="display:inline;vector-effect:non-scaling-stroke;fill:#000000;fill-opacity:1;stroke:#000000;stroke-width:0.264583;stroke-linecap:round;stroke-linejoin:round;stroke-dasharray:none;stroke-opacity:1;-inkscape-stroke:hairline"
         d="m 441.74308,-3.8549923 c 0,0 0.23389,-1.24988 -0.82705,-1.26504 -1.06094,-0.0152 -0.71413,1.23785 -0.71413,1.23785 l -23.94675,0.19607 c 0,0 -0.33255,-0.45753 -0.99391,-0.58414 0.0207,1.7053 -0.0211,2.62889 -8.9e-4,3.93871995 0.66329,-0.0154 0.99475,-0.82567995 0.99475,-0.82567995 l 23.72403,-0.17597 c 0,0 -0.38478,0.66530995 0.0138,1.12998995 0.39856,0.46468 1.26781,0.22049 1.26781,0.22049 l 0.67523,-1.46071995 z"
         id="path22385"
         sodipodi:nodetypes="czcccccczccc" /><path
         style="display:inline;vector-effect:non-scaling-stroke;fill:#000000;fill-opacity:1;stroke:#000000;stroke-width:0.264583;stroke-linecap:round;stroke-linejoin:round;stroke-dasharray:none;stroke-opacity:1;-inkscape-stroke:hairline"
         d="m 442.18405,3.3659277 c 0,0 0.23389,-1.24988 -0.82705,-1.26504 -1.06094,-0.0152 -0.71413,1.23785 -0.71413,1.23785 l -24.3755,0.19607 c 0,0 -0.33255,-0.45753 -0.99391,-0.58414 0.0207,1.7053 -0.0211,2.62889 -8.9e-4,3.93873 0.66329,-0.0154 0.99475,-0.82569 0.99475,-0.82569 l 24.15278,-0.17597 c 0,0 -0.38478,0.66531 0.0138,1.12999 0.39856,0.46469 1.26781,0.22049 1.26781,0.22049 l 0.67523,-1.46072 z"
         id="path22387"
         sodipodi:nodetypes="czcccccczccc" /><path
         style="display:inline;vector-effect:non-scaling-stroke;fill:#000000;fill-opacity:1;stroke:#000000;stroke-width:0.264583;stroke-linecap:round;stroke-linejoin:round;stroke-dasharray:none;stroke-opacity:1;-inkscape-stroke:hairline"
         d="m 442.84551,10.752208 c 0,0 0.23389,-1.2498803 -0.82705,-1.2650303 -1.06094,-0.0152 -0.71413,1.2378403 -0.71413,1.2378403 l -24.84322,0.50788 c 0,0 -0.33255,-0.45753 -0.99391,-0.58414 0.0207,1.7053 -0.0211,2.62889 -8.9e-4,3.93873 0.66329,-0.0154 0.99475,-0.82568 0.99475,-0.82568 l 24.6205,-0.48779 c 0,0 -0.38478,0.66531 0.0138,1.12999 0.39856,0.46469 1.26781,0.22049 1.26781,0.22049 l 0.67523,-1.46072 z"
         id="path22389"
         sodipodi:nodetypes="czcccccczccc" /><path
         style="display:inline;vector-effect:non-scaling-stroke;fill:#000000;fill-opacity:1;stroke:#000000;stroke-width:0.264583;stroke-linecap:round;stroke-linejoin:round;stroke-dasharray:none;stroke-opacity:1;-inkscape-stroke:hairline"
         d="m 443.56209,18.193618 c 0,0 0.23389,-1.24988 -0.82705,-1.26503 -1.06094,-0.0152 -0.71413,1.23784 -0.71413,1.23784 l -23.86879,0.4689 c 0,0 -0.33255,-0.45753 -0.99391,-0.58414 0.0207,1.7053 -0.0211,2.62889 -8.9e-4,3.93873 0.66329,-0.0154 0.99475,-0.82568 0.99475,-0.82568 l 23.64607,-0.44881 c 0,0 -0.38478,0.66531 0.0138,1.12999 0.39856,0.46469 1.26781,0.22049 1.26781,0.22049 l 0.67523,-1.46072 z"
         id="path22391"
         sodipodi:nodetypes="czcccccczccc" /><path
         style="display:inline;vector-effect:non-scaling-stroke;fill:#000000;fill-opacity:1;stroke:#000000;stroke-width:0.264583;stroke-linecap:round;stroke-linejoin:round;stroke-dasharray:none;stroke-opacity:1;-inkscape-stroke:hairline"
         d="m 444.01921,26.007508 c 0,0 0.23389,-1.24989 -0.82705,-1.26504 -1.06094,-0.0152 -0.71413,1.23784 -0.71413,1.23784 l -25.77865,0.50789 c 0,0 -0.33255,-0.45753 -0.99391,-0.58414 0.0207,1.7053 -0.0211,3.13558 -8.9e-4,4.44542 0.66329,-0.0154 0.99475,-0.82568 0.99475,-0.82568 l 25.55593,-0.99448 c 0,0 -0.38478,0.6653 0.0138,1.12999 0.39856,0.46468 1.26781,0.22049 1.26781,0.22049 l 0.67523,-1.46073 z"
         id="path22393"
         sodipodi:nodetypes="czcccccczccc" /><path
         style="display:inline;vector-effect:non-scaling-stroke;fill:#000000;fill-opacity:1;stroke:#000000;stroke-width:0.264583;stroke-linecap:round;stroke-linejoin:round;stroke-dasharray:none;stroke-opacity:1;-inkscape-stroke:hairline"
         d="m 443.92081,-37.103403 -1.49191,-0.07993 -0.22151,-2.965424 -26.96363,-0.07295 1.1133,-9.349132 -0.0481,-4.95821 -0.80257,0.0026 -0.30601,0.558708 -7.66157,-0.07978 -0.0112,4.266206 -0.0699,65.989313 8.13161,0.6491 -0.6138,-52.671588 23.92927,-1.155878 5.34678,65.429256 -0.93708,1.92925 -27.72652,0.47388 2.81457,-9.05354 -0.004,-6.42295 -1.20169,0.0711 -0.2515,0.64218 -9.49519,0.10136 0.078,14.83861 -0.25856,21.26061 37.07717,-0.0428 0.43961,-11.17269 4.25956,-4.9308 -0.27561,-5.84288 0.88194,-1.81901 z"
         id="path22395"
         sodipodi:nodetypes="cccccccccccccccccccccccccccccc" /><path
         style="vector-effect:non-scaling-stroke;fill:#000000;fill-opacity:1;stroke:#000000;stroke-width:0.264583;stroke-linecap:round;stroke-linejoin:round;stroke-dasharray:none;stroke-opacity:1;-inkscape-stroke:hairline"
         d="m 470.10353,-8.9685923 4.5751,35.1124103 -2.14974,16.48134 c 0,0 11.21905,-10.2782 10.58333,-25.74175 C 482.4765,1.4198577 470.10353,-8.9685923 470.10353,-8.9685923 Z"
         id="path22397"
         sodipodi:nodetypes="ccczc" /><path
         style="display:inline;vector-effect:non-scaling-stroke;fill:#000000;fill-opacity:1;stroke:#000000;stroke-width:0.264583;stroke-linecap:round;stroke-linejoin:round;stroke-dasharray:none;stroke-opacity:1;-inkscape-stroke:hairline"
         d="m 445.62957,-39.492542 6.28386,67.62074 -1.0473,2.03949 0.22048,5.84289 -4.00703,5.09086 -0.95313,11.03114 7.75813,0.14705 1.19924,-11.14267 4.682,-5.32411 -0.76223,-6.47597 1.59851,-1.59852 -6.73427,-64.617427 -2.60721,-0.209654 -0.17246,-2.454067 z"
         id="path22399"
         sodipodi:nodetypes="ccccccccccccccc" /><path
         style="display:inline;vector-effect:non-scaling-stroke;fill:#000000;fill-opacity:1;stroke:#000000;stroke-width:0.264583;stroke-linecap:round;stroke-linejoin:round;stroke-dasharray:none;stroke-opacity:1;-inkscape-stroke:hairline"
         d="m 457.86655,-18.835342 4.5428,47.57771 -1.15755,1.10243 0.47328,6.60675 -4.63021,4.96093 -1.02662,10.86045 5.67082,-0.0228 9.39517,-6.92399 -0.49609,-2.92144 1.76387,-16.59158 -4.9058,-38.08897 -3.51118,0.11024 -2.75605,-3.5829 -0.27562,-3.03168 z"
         id="path22401"
         sodipodi:nodetypes="ccccccccccccccc" /></g></g></svg>
