<?xml version="1.0" encoding="UTF-8" standalone="no"?>
<!-- Created with Inkscape (http://www.inkscape.org/) -->

<svg
   width="683.64661mm"
   height="212.19077mm"
   viewBox="0 0 683.6466 212.19076"
   version="1.1"
   id="svg5"
   xml:space="preserve"
   inkscape:version="1.2.2 (732a01da63, 2022-12-09)"
   sodipodi:docname="Manhattan Spacers.svg"
   inkscape:export-filename="manhattan-acrylic continuous.svg"
   inkscape:export-xdpi="96"
   inkscape:export-ydpi="96"
   xmlns:inkscape="http://www.inkscape.org/namespaces/inkscape"
   xmlns:sodipodi="http://sodipodi.sourceforge.net/DTD/sodipodi-0.dtd"
   xmlns="http://www.w3.org/2000/svg"
   xmlns:svg="http://www.w3.org/2000/svg"><sodipodi:namedview
     id="namedview7"
     pagecolor="#ffffff"
     bordercolor="#000000"
     borderopacity="0.25"
     inkscape:showpageshadow="2"
     inkscape:pageopacity="0.0"
     inkscape:pagecheckerboard="0"
     inkscape:deskcolor="#d1d1d1"
     inkscape:document-units="mm"
     showgrid="true"
     inkscape:zoom="0.38583844"
     inkscape:cx="1356.7855"
     inkscape:cy="592.21678"
     inkscape:window-width="2560"
     inkscape:window-height="1361"
     inkscape:window-x="-9"
     inkscape:window-y="-9"
     inkscape:window-maximized="1"
     inkscape:current-layer="svg5"
     inkscape:rotation="-90" /><defs
     id="defs2"><rect
       x="888.61591"
       y="261.77554"
       width="325.75259"
       height="75.161797"
       id="rect1205" /><rect
       x="888.61591"
       y="261.77554"
       width="325.75259"
       height="75.161797"
       id="rect492" /><rect
       x="888.61591"
       y="261.77554"
       width="325.75259"
       height="75.161797"
       id="rect498" /><rect
       x="888.61591"
       y="261.77554"
       width="322.08176"
       height="134.71542"
       id="rect508" /></defs><g
     inkscape:groupmode="layer"
     id="g1243"
     inkscape:label="Spacers"
     style="display:inline"
     transform="translate(-121.35461,-9.197439)"><path
       id="path2023"
       style="display:inline;opacity:1;vector-effect:non-scaling-stroke;fill:none;fill-opacity:0;stroke:#ff0000;stroke-width:0.264583;stroke-dasharray:none;stroke-opacity:1;-inkscape-stroke:hairline"
       inkscape:label="SW"
       d="m 121.36307,31.197256 5.47961,0.100416 c -0.0827,-0.543474 -0.0894,-1.098322 0.0194,-1.668516 1.38831,-3.829674 4.56826,-6.756192 8.09599,-8.64709 4.68776,-2.57428 10.16909,-2.744811 15.38448,-2.938846 v 0 c 14.65857,-0.233839 29.07465,2.785749 43.3867,5.576171 -0.0188,2.822068 -0.0675,5.644655 0.002,8.466421 -0.24551,2.542671 1.20467,5.414984 3.80056,6.08436 l 88.29367,8.784217 c 10.18061,1.267844 20.43635,1.312421 30.67579,1.793554 4.65019,0.252042 9.2823,0.413262 13.89577,1.162464 6.03407,0.897818 11.85781,2.754148 17.73151,4.343598 3.96707,1.03903 7.90438,2.236283 11.64386,3.936345 15.09407,6.879399 29.19431,15.676562 43.41884,24.153121 6.64201,3.907221 13.23662,7.910922 20.08349,11.453516 25.14186,12.673173 50.08987,25.726073 74.95441,38.932503 M 121.36307,31.197256 c -0.3397,-7.811202 9.61118,-16.099973 18.51614,-17.57357 21.36663,-3.535761 50.4498,4.256221 59.18089,5.673463 0,0 -0.21046,13.735073 0,13.752583 15.04835,1.256928 62.72763,6.326978 94.10866,9.311816 15.91026,1.513305 32.40478,-0.115595 47.74775,4.358708 22.11749,6.449894 12.78235,2.566874 33.48288,12.679905 7.64636,3.735558 43.47894,25.963674 51.11585,29.71852 25.66771,12.620029 50.94929,26.003289 76.19585,39.454179 l -3.48191,4.15663" /><path
       id="path2021"
       style="display:inline;opacity:1;vector-effect:non-scaling-stroke;fill:none;fill-opacity:0;stroke:#ff0000;stroke-width:0.264583;stroke-dasharray:none;stroke-opacity:1;-inkscape-stroke:hairline"
       inkscape:label="NW"
       d="m 205.82377,14.418649 c 2.9206,0.18758 5.84106,0.37704 8.7614,0.56811 29.51094,1.99719 59.0495,3.55079 88.57009,5.39531 24.78909,1.59337 49.59635,3.19378 74.24352,6.34634 12.06834,1.37437 24.01053,3.91377 36.16767,4.49091 19.59072,0.69553 39.06895,-2.03988 58.5503,-3.76875 11.59003,-0.89575 22.51118,-5.30099 33.79334,-7.83763 4.18329,-1.05663 8.52686,-1.77942 12.84676,-1.27448 20.22597,2.98166 40.46492,6.37611 60.93701,7.04591 15.40874,0.79111 30.74063,-1.3823 46.06838,-2.57418 7.05536,-0.41739 14.16641,-1.12016 21.21157,-0.18719 0.93864,2.46322 1.75321,4.96937 2.57923,7.47183 0.50321,0.69278 -0.48898,0.77926 -0.92027,1.09166 -3.26224,1.649 -6.73031,3.56497 -8.64615,6.85321 -1.32109,2.22182 -1.64779,4.85198 -1.23849,7.37356 l 5.56212,0.51505 m 1.8e-4,-8e-5 c -0.2049,-0.59184 -0.35645,-1.20162 -0.44381,-1.82846 -1.0454,-7.50194 12.60851,-8.45813 11.71732,-12.16689 -0.47452,-1.97478 -3.86833,-13.02838 -4.98001,-13.76698 -5.86625,-2.92375 -30.66309,-0.33797 -46.25178,1.33399 -23.28889,2.07193 -44.15464,-0.35353 -68.54302,-3.9191 -4.7095,-0.68851 -13.46366,-2.31888 -18.20731,-2.70756 -11.40232,-0.93428 -31.87796,8.11728 -43.27993,9.0559 -18.67587,1.53744 -49.80087,6.05181 -69.0133,3.37227 -31.02806,-4.32747 -31.29583,-4.91817 -68.37869,-7.93254 -27.17773,-2.20923 -54.42504,-3.46126 -81.64359,-5.09224 -16.00256,-0.95891 -32.00047,-2.03099 -47.99957,-3.0791796 l -1.46297,5.2212096" /><path
       id="path2013"
       style="display:inline;opacity:1;vector-effect:non-scaling-stroke;fill:none;fill-opacity:0;stroke:#ff0000;stroke-width:0.264583;stroke-dasharray:none;stroke-opacity:1;-inkscape-stroke:hairline"
       inkscape:label="SE"
       d="M 739.50564,56.344088 C 705.80861,55.722533 670.22121,54.940376 636.83268,57.340891 600.22977,72.762386 565.62559,119.12837 500.11636,122.0667 487.5313,112.5929 482.61809,98.709826 472.14418,89.113196 c -6.3616,-5.8288 -12.77225,-11.88969 -20.38305,-15.9543 -14.06553,-7.26775 -37.58931,-8.74799 -51.94004,-20.927235 v 0 c -0.10126,-0.118278 -0.19923,-0.23917 -0.29403,-0.362513 l 4.54412,-3.063857 m 0,0 c 1.11724,1.169356 2.71714,1.880085 4.03756,2.790476 8.76491,5.212613 18.76306,7.664249 28.46194,10.496509 7.7806,2.23341 15.59525,4.73863 22.38543,9.27768 7.17577,4.76713 13.42004,10.70002 19.58625,16.68659 7.63854,8.1535 12.74933,18.492734 20.82412,26.355174 1.01869,1.06025 2.22108,2.33359 3.83106,2.20248 6.57116,-0.54136 13.12216,-1.43723 19.56079,-2.87844 13.8253,-3.03744 27.07669,-8.38776 39.428,-15.264074 18.09622,-9.96874 34.32602,-22.85499 51.48724,-34.27719 6.51033,-4.27736 13.26121,-8.275058 20.46227,-11.341557 2.21128,-0.949796 4.80515,-0.996765 7.22639,-1.123393 7.45721,-0.376467 14.87478,-0.762416 22.34394,-0.939678 25.40417,-0.68765 50.80519,-0.155299 76.20728,0.264791 l -0.40782,5.289434" /><path
       id="path2011"
       style="display:inline;opacity:1;vector-effect:non-scaling-stroke;fill:none;fill-opacity:0;stroke:#ff0000;stroke-width:0.264583;stroke-dasharray:none;stroke-opacity:1;-inkscape-stroke:hairline"
       inkscape:label="NE"
       d="m 314.80708,70.984065 c 14.04093,10.19646 28.11241,20.35037 42.45924,30.114905 2.8453,1.92927 5.70904,3.83082 8.57216,5.73353 9.09464,-1.82909 18.10394,-4.40838 27.44403,-4.16349 5.65365,0.21996 11.04054,3.01341 15.13605,6.91154 3.32361,3.14911 5.71497,7.10057 8.80335,10.4547 1.01734,1.29328 2.60829,1.86285 3.99503,2.65847 6.98397,3.5953 14.78012,5.90716 20.72522,11.21209 3.70149,3.24482 6.03053,7.64458 8.78677,11.64457 1.30744,1.83945 2.73546,3.6725 4.59244,4.97935 2.68762,1.33046 5.76826,1.11867 8.6641,1.51925 9.36103,0.76847 19.01119,-0.86013 27.33653,-5.30102 7.33057,-3.63922 14.14954,-8.54126 22.16738,-10.61909 2.54333,-0.64371 5.05807,-0.91333 7.69675,-1.06395 4.89266,-0.19195 9.78873,-0.29191 14.68209,-0.47317 29.25305,-0.92035 58.50545,-1.89831 87.76397,-2.6189 11.81415,0.11632 23.24742,3.85628 33.85548,8.73708 15.17727,7.00125 29.1071,16.42882 44.17766,23.67329 5.16199,2.46279 10.42861,4.85941 16.05807,6.0279 4.92741,1.06244 9.93366,1.82607 14.80844,3.09521 3.20367,0.79182 6.50843,1.57459 9.33187,3.34898 2.73063,1.89419 4.26274,5.65779 2.98118,8.83791 -0.23283,0.68439 -0.51081,1.35227 -0.76227,2.0299 4.5336,3.0269 8.25548,7.36274 12.6289,10.77735 0.43162,0.50279 0.92816,-0.32428 1.43216,-0.4068 2.98053,-1.38107 6.89379,-0.12618 8.42961,2.80154 1.76555,2.84165 3.546,5.86782 6.43126,7.71846 5.12191,3.91142 11.45178,5.75133 17.68158,7.00008 0.69875,0.0957 1.68572,0.57271 2.13868,-0.25977 2.31422,-3.99762 4.45515,-8.09414 6.36914,-12.29883 -2.73101,-4.54415 -5.16502,-9.5422 -5.32422,-14.9414 -0.0413,-1.32107 0.11056,-2.66919 0.45872,-3.96135 l 4.85741,2.75826 m 0,0 c -0.62282,6.84106 5.49353,14.35631 5.80628,15.58988 0.33583,1.32459 -8.72055,18.27005 -9.68813,18.74263 -1.73326,0.84655 -17.31408,-2.03998 -24.98348,-7.94485 -9.71219,-7.03883 -7.14221,-13.86975 -11.68928,-8.77548 -9.02523,-1.19018 -9.82385,-9.51741 -22.7842,-15.19747 8.6268,-9.1524 5.21903,-8.80687 -22.78421,-14.46304 -31.5756,-10.56435 -59.24669,-38.76928 -92.52366,-37.64345 -34.75421,1.17581 -63.74208,1.8442 -100.05236,3.16998 -19.47138,0.71093 -27.86341,22.26979 -64.39011,16.04798 -8.9327,-1.52156 -11.57936,-14.16849 -18.82175,-19.61419 -7.15394,-5.37921 -16.45999,-7.32346 -23.7748,-12.48178 -14.52254,-20.90617 -18.33885,-18.28375 -48.73837,-11.88742 -16.792,-10.80835 -34.71907,-23.806575 -53.3255,-37.372775 l 3.37079,-4.09661" /></g></svg>
