<?xml version="1.0" encoding="UTF-8" standalone="no"?>
<!-- Created with Inkscape (http://www.inkscape.org/) -->

<svg
   width="795.12848mm"
   height="363.65247mm"
   viewBox="0 0 795.12847 363.65246"
   version="1.1"
   id="svg5"
   xml:space="preserve"
   xmlns="http://www.w3.org/2000/svg"
   xmlns:svg="http://www.w3.org/2000/svg"><defs
     id="defs2" /><g
     id="g600"
     style="display:inline;vector-effect:non-scaling-stroke;fill:#000000;fill-opacity:1;stroke:#000000;stroke-width:0.264583;stroke-dasharray:none;stroke-opacity:1;-inkscape-stroke:hairline"
     transform="matrix(1,0,0,-1,30.246102,382.53618)"><path
       style="display:inline;opacity:1;vector-effect:non-scaling-stroke;fill:#000000;fill-opacity:0;stroke:#ff0000;stroke-width:0.264583;stroke-dasharray:none;stroke-opacity:1;-inkscape-stroke:hairline"
       d="m 12.363626,37.834502 c 4.757145,18.211219 23.167485,32.929097 30.511028,46.955254 3.897722,7.697614 5.666657,16.340584 7.528707,24.765424 3.065759,13.87083 -0.88239,28.05852 3.982408,43.04087 55.323201,35.20589 110.276021,17.11107 149.099081,25.49991 48.33474,28.95898 96.59268,68.87773 137.9619,95.50546 30.39958,-6.39635 34.21581,-9.01879 48.73837,11.88742 7.31483,5.15834 16.62084,7.10255 23.7748,12.48178 7.24241,5.44572 9.88903,18.09263 18.82175,19.61419 36.52678,6.22183 44.91869,-15.33705 64.39011,-16.04798 36.31036,-1.32578 65.29809,-1.99417 100.05236,-3.16998 33.27703,-1.12583 60.948,27.07908 92.52366,37.64345 28.0033,5.65619 31.41103,5.31062 22.78421,14.46304 12.96037,5.68008 13.75895,14.00729 22.7842,15.19747 4.54707,-5.09429 1.97707,1.73663 11.68928,8.77548 7.66942,5.90489 23.25022,8.7914 24.98348,7.94485 0.96758,-0.47258 10.02396,-17.41804 9.68813,-18.74263 -0.34126,-1.34604 -7.59265,-10.17141 -5.45835,-17.43898 2.1343,-7.26754 14.97205,-2.52034 15.68599,-6.26726 0.38015,-1.9951 1.83562,-13.466 1.12636,-14.59663 -4.1434,-5.07874 -27.80747,-12.92604 -42.70316,-17.81703 -22.07832,-7.69514 -40.09735,-18.49204 -60.8579,-31.77769 -4.00894,-2.5655 -11.31664,-7.65381 -15.4801,-9.96009 -10.00772,-5.54364 -32.39409,-5.71979 -43.1722,-9.55629 -17.65403,-6.284 -47.8792,-14.97762 -64.28695,-25.32581 C 540.0323,214.1964 540.03145,213.54793 507.47422,195.54078 483.6133,182.34348 459.2952,169.99001 435.15912,157.30293 395.65104,136.53558 356.53741,114.98373 316.4832,95.290305 308.84627,91.535451 273.01373,69.307351 265.36735,65.571785 244.66678,55.458734 254.002,59.341786 231.88447,52.89188 216.54146,48.417569 200.04702,50.046481 184.13672,48.533172 152.75563,45.548329 105.07645,40.478287 90.028062,39.221357 c -0.210459,-0.01751 0,-13.752584 0,-13.752584 C 81.296962,24.051529 52.21385,16.259542 30.847173,19.79531 21.765019,21.29823 11.594945,29.890193 12.363626,37.834502 Z"
       id="path280"
       transform="translate(-28.340798)" /><g
       id="g1832"
       style="display:inline;stroke:#000000;stroke-width:2.9;stroke-dasharray:none;stroke-dashoffset:0;stroke-opacity:1"><g
         id="g1798"
         style="display:inline;stroke:#000000;stroke-width:2.9;stroke-dasharray:none;stroke-dashoffset:0;stroke-opacity:1"><path
           style="opacity:1;fill:#f60000;fill-opacity:0;stroke:#000000;stroke-width:2.9;stroke-linecap:round;stroke-linejoin:round;stroke-dasharray:none;stroke-dashoffset:0;stroke-opacity:1"
           d="m 759.60155,379.00545 -55.45949,-30.63786 -11.86708,-20.78755 -247.16332,-138.26785 -16.3816,-0.32498 -82.5839,-46.13236 -61.5223,-0.19781 L 137.83935,61.443453 63.085187,55.640777 50.2884,77.249797 10.383741,50.995975 -11.750202,67.066065"
           id="path1790" /><path
           style="opacity:1;fill:#f60000;fill-opacity:0;stroke:#000000;stroke-width:2.9;stroke-linecap:round;stroke-linejoin:round;stroke-dasharray:none;stroke-dashoffset:0;stroke-opacity:1"
           d="m 504.87024,320.46978 -7.61109,-33.9618 -61.46666,-35.69882 -11.34765,-37.18795 5.57737,-19.92405 -1.33036,-4.72811"
           id="path1792" /><path
           style="display:inline;opacity:1;fill:none;fill-opacity:0;stroke:#000000;stroke-width:2.9;stroke-linecap:round;stroke-linejoin:round;stroke-dasharray:none;stroke-dashoffset:0;stroke-opacity:1"
           d="M 62.842731,55.546987 16.88155,25.430588 -23.424537,49.740993"
           id="path1794" /><path
           style="display:inline;opacity:1;fill:none;fill-opacity:0;stroke:#000000;stroke-width:2.9;stroke-linecap:round;stroke-linejoin:round;stroke-dasharray:none;stroke-dashoffset:0;stroke-opacity:1"
           d="m 497.45294,286.6869 15.5569,8.40872 2.30109,-9.74441"
           id="path1796" /></g><g
         id="g1804"
         style="display:inline;stroke:#000000;stroke-width:2.9;stroke-dasharray:none;stroke-dashoffset:0;stroke-opacity:1"><path
           style="display:inline;opacity:1;fill:#f60000;fill-opacity:0;stroke:#000000;stroke-width:2.9;stroke-linecap:round;stroke-linejoin:round;stroke-dasharray:none;stroke-dashoffset:0;stroke-opacity:1"
           d="M 715.3578,339.26165 693.77383,304.60937 656.05819,283.48305 578.1718,279.86455 491.83165,237.7176 470.34451,239.19696 286.4728,136.81007 165.97699,70.212259 64.16093,62.633554 41.017168,48.205645 21.12608,70.100548 1.462428,84.673192"
           id="path1800" /><path
           style="display:inline;opacity:1;fill:#f60000;fill-opacity:0;stroke:#000000;stroke-width:2.9;stroke-linecap:round;stroke-linejoin:round;stroke-dasharray:none;stroke-dashoffset:0;stroke-opacity:1"
           d="m 276.78581,131.71143 -17.6442,2.07101 -53.63817,98.02311"
           id="path1802" /></g><path
         style="display:inline;opacity:1;fill:#f60000;fill-opacity:0;stroke:#000000;stroke-width:2.9;stroke-linecap:round;stroke-linejoin:round;stroke-dasharray:none;stroke-dashoffset:0;stroke-opacity:1"
         d="M 503.43086,333.92431 474.33575,311.14107 225.55442,174.52383 224.93166,162.2982 142.74437,116.73289 122.53705,117.35505 2.1931206,37.831092 -12.667802,35.081793 l -16.1283,9.375827"
         id="path1806" /><path
         style="display:inline;opacity:1;fill:#f60000;fill-opacity:0;stroke:#000000;stroke-width:2.9;stroke-linecap:round;stroke-linejoin:round;stroke-dasharray:none;stroke-dashoffset:0;stroke-opacity:1"
         d="m 236.51636,78.768549 23.24927,13.39436 -67.48677,123.761261"
         id="path1808" /><g
         id="g1820"
         style="display:inline;stroke:#000000;stroke-width:2.9;stroke-dasharray:none;stroke-dashoffset:0;stroke-opacity:1"><path
           style="display:inline;opacity:1;fill:#f60000;fill-opacity:0;stroke:#000000;stroke-width:2.9;stroke-linecap:round;stroke-linejoin:round;stroke-dasharray:none;stroke-dashoffset:0;stroke-opacity:1"
           d="m 572.90424,325.54374 -6.70439,-40.42257 -8.29807,-0.36379 -71.65125,-35.25651 -15.29684,2.03196 -199.31649,-110.57882 -52.37183,95.99764"
           id="path1810" /><path
           style="display:inline;opacity:1;fill:#f60000;fill-opacity:0;stroke:#000000;stroke-width:2.9;stroke-linecap:round;stroke-linejoin:round;stroke-dasharray:none;stroke-dashoffset:0;stroke-opacity:1"
           d="M 271.56039,156.51015 119.58917,72.258252 93.892372,117.539 80.077155,113.87015 43.565606,181.71166"
           id="path1812" /><path
           style="display:inline;opacity:1;fill:#f60000;fill-opacity:0;stroke:#000000;stroke-width:2.9;stroke-linecap:round;stroke-linejoin:round;stroke-dasharray:none;stroke-dashoffset:0;stroke-opacity:1"
           d="m 271.5067,156.52516 24.91606,13.80256 -48.2578,89.20698"
           id="path1814" /><path
           style="display:inline;opacity:1;fill:#f60000;fill-opacity:0;stroke:#000000;stroke-width:2.9;stroke-linecap:round;stroke-linejoin:round;stroke-dasharray:none;stroke-dashoffset:0;stroke-opacity:1"
           d="M 93.853939,117.57492 86.463313,130.76437 57.491428,123.01176 0.74689435,149.23185"
           id="path1816" /><path
           style="display:inline;opacity:1;fill:none;fill-opacity:0;stroke:#000000;stroke-width:2.9;stroke-linecap:round;stroke-linejoin:round;stroke-dasharray:none;stroke-dashoffset:0;stroke-opacity:1"
           d="M 79.620659,113.82725 65.198451,109.85806 11.20524,133.79308"
           id="path1818" /></g><g
         id="g1828"
         style="display:inline;stroke:#000000;stroke-width:2.9;stroke-dasharray:none;stroke-dashoffset:0;stroke-opacity:1"><path
           style="display:inline;opacity:1;fill:#f60000;fill-opacity:0;stroke:#000000;stroke-width:2.9;stroke-linecap:round;stroke-linejoin:round;stroke-dasharray:none;stroke-dashoffset:0;stroke-opacity:1"
           d="M 363.7149,270.45359 288.48725,229.10473 306.68776,182.86176 302.7765,167.6877 195.04761,108.68151 124.80225,110.12893 19.248192,41.324267 0.74682049,41.951751 -18.640304,54.701176"
           id="path1822" /><path
           style="display:inline;opacity:1;fill:#e1de09;fill-opacity:1;stroke:#000000;stroke-width:2.9;stroke-linecap:round;stroke-linejoin:round;stroke-dasharray:none;stroke-dashoffset:0;stroke-opacity:1"
           d="M 290.625,161.48151 233.03342,272.57603"
           id="path1824" /><path
           style="display:inline;opacity:1;fill:none;fill-opacity:0;stroke:#000000;stroke-width:2.9;stroke-linecap:round;stroke-linejoin:round;stroke-dasharray:none;stroke-dashoffset:0;stroke-opacity:1"
           d="M 77.025488,79.601784 54.754556,106.19882 -4.0168065,131.38014"
           id="path1826" /></g><path
         style="display:inline;opacity:1;fill:#e1de09;fill-opacity:1;stroke:#000000;stroke-width:2.9;stroke-linecap:round;stroke-linejoin:round;stroke-dasharray:none;stroke-dashoffset:0;stroke-opacity:1"
         d="M 170.59645,61.269606 101.36689,199.27549"
         id="path1830" /></g></g></svg>
